<svg xmlns="http://www.w3.org/2000/svg" version="1.1" xmlns:xlink="http://www.w3.org/1999/xlink" xmlns:svgjs="http://svgjs.dev/svgjs" width="1000" height="1000" viewBox="0 0 1000 1000"><rect width="1000" height="1000" fill="#ffffff"></rect><g transform="matrix(0.7,0,0,0.7,149.57575757575756,282.1265587044535)"><svg viewBox="0 0 396 247" data-background-color="#ffffff" preserveAspectRatio="xMidYMid meet" height="623" width="1000" xmlns="http://www.w3.org/2000/svg" xmlns:xlink="http://www.w3.org/1999/xlink"><g id="tight-bounds" transform="matrix(1,0,0,1,0.2400000000000091,-0.09999999999999432)"><svg viewBox="0 0 395.52 247.2" height="247.2" width="395.52"><g><svg></svg></g><g><svg viewBox="0 0 395.52 247.2" height="247.2" width="395.52"><g transform="matrix(1,0,0,1,75.54432,97.09664203303684)"><svg viewBox="0 0 244.43135999999998 53.0067159339263" height="53.0067159339263" width="244.43135999999998"><g><svg viewBox="0 0 244.43135999999998 53.0067159339263" height="53.0067159339263" width="244.43135999999998"><g><svg viewBox="0 0 244.43135999999998 53.0067159339263" height="53.0067159339263" width="244.43135999999998"><g><svg viewBox="0 0 244.43135999999998 53.0067159339263" height="53.0067159339263" width="244.43135999999998"><g id="textblocktransform"><svg viewBox="0 0 244.43135999999998 53.0067159339263" height="53.0067159339263" width="244.43135999999998" id="textblock"><g><svg viewBox="0 0 244.43135999999998 53.0067159339263" height="53.0067159339263" width="244.43135999999998"><g transform="matrix(1,0,0,1,0,0)"><svg width="244.43135999999998" viewBox="0.8500000238418579 -24.600000381469727 118.04000091552734 25.600000381469727" height="53.0067159339263" data-palette-color="#8abe53"><path d="M19.45-12.4L6.7-12.6Q6.7-8.35 8.93-6 11.15-3.65 14.6-3.65L14.6-3.65Q17.3-3.65 21-5.35L21-5.35 21.9-3 14.1 0.7Q8.3 1 4.58-2.45 0.85-5.9 0.85-11.45L0.85-11.45Q0.85-16.85 4.33-20.73 7.8-24.6 12.75-24.6L12.75-24.6Q16.95-24.6 19.68-21.98 22.4-19.35 22.35-15.2L22.35-15.2 19.45-12.4ZM10.6-21.2L10.6-21.2Q7.95-19.7 7.05-15.6L7.05-15.6 16.8-16.1Q16.4-18.4 14.68-19.83 12.95-21.25 10.6-21.2ZM30.6-18.7L30.6-18.7Q30.6-17.2 31.85-16.28 33.1-15.35 35.7-14.2L35.7-14.2 39.05-12.5Q43-10.25 43-6.4L43-6.4Q43-3.15 40.45-1.07 37.9 1 33.85 1L33.85 1Q29.25 1 24.45-1.65L24.45-1.65 26.65-6.75Q31.15-3.5 36.25-2.5L36.25-2.5Q37.45-3.55 37.45-5.05L37.45-5.05Q37.45-6.45 36.42-7.43 35.4-8.4 31.65-10.1 27.9-11.8 26.55-13.43 25.2-15.05 25.2-17.2L25.2-17.2Q25.2-20.6 28.1-22.6 31-24.6 35.2-24.6L35.2-24.6Q39.05-24.6 42.05-23.05L42.05-23.05 42.1-23.05 42.15-21.85Q42.15-19.05 41.25-16.4L41.25-16.4 38-16.4 37.25-20.6Q34.6-21.45 32.3-21.3L32.3-21.3Q30.6-20.4 30.6-18.7ZM52.2-18.7L52.2-18.7Q52.2-17.2 53.45-16.28 54.7-15.35 57.3-14.2L57.3-14.2 60.65-12.5Q64.6-10.25 64.6-6.4L64.6-6.4Q64.6-3.15 62.05-1.07 59.5 1 55.45 1L55.45 1Q50.85 1 46.05-1.65L46.05-1.65 48.25-6.75Q52.75-3.5 57.85-2.5L57.85-2.5Q59.05-3.55 59.05-5.05L59.05-5.05Q59.05-6.45 58.02-7.43 57-8.4 53.25-10.1 49.5-11.8 48.15-13.43 46.8-15.05 46.8-17.2L46.8-17.2Q46.8-20.6 49.7-22.6 52.6-24.6 56.8-24.6L56.8-24.6Q60.65-24.6 63.65-23.05L63.65-23.05 63.7-23.05 63.75-21.85Q63.75-19.05 62.85-16.4L62.85-16.4 59.6-16.4 58.85-20.6Q56.2-21.45 53.9-21.3L53.9-21.3Q52.2-20.4 52.2-18.7ZM85.99-12.4L73.24-12.6Q73.24-8.35 75.47-6 77.69-3.65 81.14-3.65L81.14-3.65Q83.84-3.65 87.54-5.35L87.54-5.35 88.44-3 80.64 0.7Q74.84 1 71.12-2.45 67.39-5.9 67.39-11.45L67.39-11.45Q67.39-16.85 70.87-20.73 74.34-24.6 79.29-24.6L79.29-24.6Q83.49-24.6 86.22-21.98 88.94-19.35 88.89-15.2L88.89-15.2 85.99-12.4ZM77.14-21.2L77.14-21.2Q74.49-19.7 73.59-15.6L73.59-15.6 83.34-16.1Q82.94-18.4 81.22-19.83 79.49-21.25 77.14-21.2ZM115.34-16.4L115.34-3.6Q117.64-3.1 118.89-2.4L118.89-2.4 118.64 0 106.89 0 106.69-1.7 109.49-2.85 109.49-14.6Q109.49-19.75 106.34-19.75L106.34-19.75Q104.19-19.75 100.04-17.1L100.04-17.1 100.04-3.55Q102.09-3 103.14-2.4L103.14-2.4 102.94 0 90.79 0 90.59-1.7Q91.79-2.35 94.19-3.1L94.19-3.1 94.19-20.35 90.44-20.4 89.94-22.8Q93.39-24.2 97.79-24.45L97.79-24.45 100.04-22.35 100.04-19.5Q106.14-23.85 109.34-24.4L109.34-24.4Q110.84-24.2 112.37-23.25 113.89-22.3 114.69-20.95L114.69-20.95Q115.29-19.85 115.34-16.4L115.34-16.4Z" opacity="1" transform="matrix(1,0,0,1,0,0)" fill="#8abe53" className="undefined-text-0" data-fill-palette-color="primary" id="text-0"></path></svg></g></svg></g></svg></g></svg></g></svg></g></svg></g></svg></g><g><path d="M0 123.6c0-68.262 55.338-123.6 123.6-123.6 56.921 0 104.855 38.477 119.212 90.84l-2.481 0c-14.291-51.027-61.141-88.45-116.731-88.45-66.942 0-121.21 54.268-121.21 121.21 0 66.942 54.268 121.21 121.21 121.21 55.59 0 102.44-37.423 116.731-88.45l2.481 0c-14.357 52.363-62.291 90.84-119.212 90.84-68.262 0-123.6-55.338-123.6-123.6z" fill="#8abe53" stroke="transparent" data-fill-palette-color="tertiary"></path></g></svg></g><defs></defs></svg><rect width="395.52" height="247.2" fill="none" stroke="none" visibility="hidden"></rect></g></svg></g></svg>